# xmcd CD database file
#
# Track frame offsets:
#	150
#	14150
#	27797
#	41959
#	53534
#	67979
#	82438
#	96025
#	109890
#	121735
#	133975
#	145863
#	159442
#	172107
#	186270
#	200996
#	215001
#	228315
#	240897
#	253644
#	267841
#	281435
#	297093
#
# Disc length: 4148 seconds
#
# Revision: 3
# Processed by: cddbd v1.5.2PL0 Copyright (c) Steve Scherf et al.
# Submitted via: CDex 1.73
#
DISCID=5c103217
DTITLE=Various Artist - Jazz in the Charts - CD020/100 (1935)
DYEAR=1935
DGENRE=Jazz
TTITLE0=Night Wind - Dorsey Brothers Orchestra
TTITLE1=What A Little Moonlight Can Do - Teddy Wilson and His Orchestra
TTITLE2=Clouds - Benny Goodman and His Orchestra
TTITLE3=Lookie, Lookie, Here Comes Coookie - Casa Loma Orchestra
TTITLE4=My Heart Is An Opern Book - Casa Loma Orchestra
TTITLE5=Night Wind - Benny Goodman and His Orchestra
TTITLE6=I Was Lucky - Benny Goodman and His Orchestra
TTITLE7=Solitude - Mills Blue Rhythm Band
TTITLE8=Whos Honey Are You - Fats Waller and His Rhythm
TTITLE9=Lullaby Of Broadway - Dorsey Brothers Orchestra
TTITLE10=Singing A Happy Song - Benny Goodman and His Orchestra
TTITLE11=The Dixieland Band - Benny Goodman and His Orchestra
TTITLE12=Lullaby Of Broadway - Chick Bullock
TTITLE13=The Dixieland Band - Benny Goodman and His (Music Hall) Orchestra
TTITLE14=Rhythm Is Our Business - Jimmie Lunceford and His Orchestra
TTITLE15=Pardon My Love - Fats Waller and His Rhythm
TTITLE16=You re A HeavenlyThing - Benny Goodman and His Orchestra
TTITLE17=Black And Tan Fantasy - Jimmie Lunceford and His Orchestra
TTITLE18=Dancing Dogs - Mills Blue Rhythm Band
TTITLE19=Im Living In A Great Big Way - Louis Prima and His New Orleans Gang
TTITLE20=Merry-Go-Round - Duke Ellington and His Orchestra
TTITLE21=Japanese Sandman - Benny Goodman and His Orchestra
TTITLE22=Body And Soul - Henry Red Allen and His Orchestra
EXTD=YEAR: 1935
EXTT0=
EXTT1=
EXTT2=
EXTT3=
EXTT4=
EXTT5=
EXTT6=
EXTT7=
EXTT8=
EXTT9=
EXTT10=
EXTT11=
EXTT12=
EXTT13=
EXTT14=
EXTT15=
EXTT16=
EXTT17=
EXTT18=
EXTT19=
EXTT20=
EXTT21=
EXTT22=
PLAYORDER=
